<svg width="1440" height="53" viewBox="0 0 1440 53" fill="none" xmlns="http://www.w3.org/2000/svg">
<g filter="url(#filter0_f_21_13)">
<line y1="-0.5" x2="1450" y2="-0.5" transform="matrix(0.999999 -0.00137931 0.00139853 0.999999 1 28)" stroke="white"/>
<line y1="-0.5" x2="1450" y2="-0.5" transform="matrix(0.999999 -0.00137931 0.00139853 0.999999 1 28)" stroke="white"/>
<line y1="-0.5" x2="1450" y2="-0.5" transform="matrix(0.999999 -0.00137931 0.00139853 0.999999 1 28)" stroke="white"/>
<line y1="-0.5" x2="1450" y2="-0.5" transform="matrix(0.999999 -0.00137931 0.00139853 0.999999 1 28)" stroke="white"/>
</g>
<line y1="-0.5" x2="1450" y2="-0.5" transform="matrix(0.999999 -0.00137931 0.00139853 0.999999 1 28)" stroke="white"/>
<line y1="-0.5" x2="1450" y2="-0.5" transform="matrix(0.999999 -0.00137931 0.00139853 0.999999 1 28)" stroke="white"/>
<line y1="-0.5" x2="1450" y2="-0.5" transform="matrix(0.999999 -0.00137931 0.00139853 0.999999 1 28)" stroke="white"/>
<line y1="-0.5" x2="1450" y2="-0.5" transform="matrix(0.999999 -0.00137931 0.00139853 0.999999 1 28)" stroke="white"/>
<defs>
<filter id="filter0_f_21_13" x="-24.0014" y="0" width="1500" height="53" filterUnits="userSpaceOnUse" color-interpolation-filters="sRGB">
<feFlood flood-opacity="0" result="BackgroundImageFix"/>
<feBlend mode="normal" in="SourceGraphic" in2="BackgroundImageFix" result="shape"/>
<feGaussianBlur stdDeviation="12.5" result="effect1_foregroundBlur_21_13"/>
</filter>
</defs>
</svg>
